<?xml version="1.0" encoding="utf-8"?>
<!-- Generator: Adobe Illustrator 26.0.3, SVG Export Plug-In . SVG Version: 6.00 Build 0)  -->
<svg version="1.1" id="Layer_1" xmlns="http://www.w3.org/2000/svg" xmlns:xlink="http://www.w3.org/1999/xlink" x="0px" y="0px"
	 viewBox="0 0 700 700" style="enable-background:new 0 0 700 700;" xml:space="preserve">
<style type="text/css">
	.st0{fill:#F9ED32;}
	.st1{fill:#E8D103;}
	.st2{fill:#FF3333;}
	.st3{fill:#EA0303;}
	.st4{fill:#231F20;}
	.st5{fill:#F69B77;}
	.st6{fill:#434B56;}
	.st7{fill:#B08C7E;}
	.st8{fill:#DEB198;}
	.st9{fill:#FAE58F;}
	.st10{fill:#ACD263;}
</style>
<g>
	<g>
		<path class="st0" d="M21.73,306.39l39.19-35.28l13.6,1.41l26.45-20.76l-1.02-22.55l52.33-25.29l9.03,18.68l19.87-17.96
			l-3.03-32.22l41.28-19.95l16.46,12.04l31.64-8.45l51.77,88.23c0,0-40.91,83.62-108.1,107.36c-67.19,23.74-147.2,21.75-147.2,21.75
			L21.73,306.39z"/>
		<polygon class="st1" points="57.54,272.75 79.75,373.74 121.83,374.31 		"/>
		<polygon class="st1" points="105.22,255.02 126.37,366.41 168.45,366.97 		"/>
		<polygon class="st1" points="101.74,228.96 168.32,353.35 218.84,340.72 		"/>
		<polygon class="st1" points="184.26,169.31 227.64,346.34 322.95,246.31 		"/>
		<path class="st2" d="M354.27,295.4c17.82,40.79,35.7,88.01,29.29,98.33c-11.12,18.67-20.05-11.59-116.16,34.86
			s-121.09,82.85-121.09,82.85s-13.08-5.84-30.45-22.9c-12.99-12.72-27.89-31.75-41.44-59.78c30.47-1.43,77.28-11.51,144.13-43.82
			C283.09,354.13,326.07,321.95,354.27,295.4z"/>
		<path class="st3" d="M346.55,277.85c2.37,5.69,5.2,11.55,7.72,17.55c-28.21,26.56-66.69,65.68-131.07,96.8
			c-67.16,32.46-117.85,35.3-148.63,36.88c-7.74-16.02-14.84-34.63-20.97-56.75c0,0,61.64,25.31,163.61-23.98
			s108.22-115.77,108.22-115.77S334.96,252.29,346.55,277.85z"/>
		<path class="st4" d="M306.81,202.81c-2.92,1.03-19.28-34.39-27.62-51.64c-1.94-4-6.05-5.44-10.18-5.34
			c-12.26,1.37-23.78,4.27-35.17,9.02c-1.95-3.24-4.2-6.33-6-9.26c-2.55-3.71-7.45-3.62-11.3-2.14c-8.76,3.1-17.84,6.34-26.61,10.2
			c-6,2.52-15.99,5.45-19.29,11.98c-2.37,5.32,0,11.78,1.15,17.31c1.44,6.91,3.18,13.66,4.93,20.42c-3.08,1.49-6.01,3.29-8.94,5.08
			c-1.34-2.77-3.14-5.7-4.79-8.33c-2.69-4.78-7.57-6.22-12.8-4.46c-19.83,6.93-38.78,15.7-56.97,26.02
			c-4.78,2.69-6.22,7.57-4.46,12.8c1.62,4.92,2.78,9.68,4.25,14.29c-7.27,5.41-14.08,11.75-20.3,18.55
			c-0.77-0.26-0.36-0.12-1.13-0.38c-0.34-8.56-10.34-11.96-15.76-7.04c-13.95,12.82-26.83,26.27-38.81,40.8
			c-2.8,3.64-1.33,8.25,0.61,11.49c6.31,9.11,12.92,18.08,19.84,26.89c-37.04,35.01,86.39,177.15,96.72,182.8
			c22.03,11.77,33.95-20.97,46.81-32.89c40.29-37.72,110.98-70.74,160.18-76.67c19.46-2.19,53.29,8.83,52.48-21.95
			C393.91,360.99,352.48,186.43,306.81,202.81z M244.38,171.04c6.46-2.36,12.6-3.81,19.2-5.1c13.86,27.89,28.48,55.78,45.89,81.57
			c-6.44,12.62-17.81,26.85-26.66,36.83C274.91,256.23,247.93,179.96,244.38,171.04z M187.56,174.56
			c7.87-4.94,18.02-8.33,27.7-11.11c0.45,0.92,1.04,2.16,1.8,2.93c2.99,5.4,5.98,10.79,8.97,16.19c4.03,7.55,8.52,15.26,11.93,23.12
			c10.78,29.37,30.14,92.22,31.04,93.31c-0.47,0.61-1.39,1.05-1.86,1.66c-19.74-34.54-37.32-70.13-52.43-106.91
			c-1.93-4.77-8.17-6.69-12.8-4.46c-3.39,1.64-6.47,3.13-9.71,5.07C190.28,188.06,188.08,181.15,187.56,174.56z M227.87,329.51
			c-11.81-20.51-22.71-41.47-33.6-62.43c-7.32-13.57-13.09-27.87-19.49-41.89c8.64-4.93,17.73-9.71,26.51-14.34
			c14.69,34.32,50.52,101.37,50.98,101.53C244.39,318.87,236.36,324.27,227.87,329.51z M107.23,234.81
			c13.57-7.32,27.27-13.56,41.73-19.03c10.15,19.42,17.98,40.34,28.12,59.75c11.35,21.12,22.08,42.53,34.35,63.2
			c-1.54,0.74-2.77,1.34-4.31,2.08c-9.55,4.62-19.25,8.92-29.39,12.31c-21.56-35.95-40.5-72.78-56.81-111.25
			c-1.78-4.46-8.32-7-12.8-4.46C108.57,237.58,107.67,235.74,107.23,234.81z M108.82,260.12c15,34.17,32,67,50.86,98.93
			c-8.75,2.33-17.66,4.35-26.55,5.61c-19.86-25.36-37.1-52.38-52.33-80.74C81.73,283.48,108.2,260.42,108.82,260.12z M87.34,366.65
			c-0.45-0.92-36.81-39.21-51.53-60.22c7.31-8.47,14.76-16.64,22.51-24.18c15.37,29.44,32.89,57.83,52.58,84.41
			C105.09,367.2,89.79,366.99,87.34,366.65z M371.85,377.35c1.29,6.6,4.11,13.22-4.35,16.16c-4.92,1.62-14.98-1.12-20.5-0.73
			c-11.03,0.77-21.46,2.77-32.06,6c-23.2,7.03-45.09,18.37-66.96,28.94c-20.33,9.83-40.96,19.04-59.95,31.64
			c-9.26,6-17.77,12.77-25.37,20.63c-5.12,5.13-15.17,24.44-23.56,22.03c-2.74-0.95-10.85-12.24-12.66-14.4
			c-3.91-4.95-7.83-9.9-11.74-14.85c-9.62-12.83-18.63-25.96-26.86-39.84c-9.42-16.35-17.92-33.14-25.04-50.22
			c7.78,1.94,16.03,2.51,23.07,2.91c42.81,2.87,86.25-7.11,124.6-25.26c38.97-18.45,74.53-45.52,101.46-79.44
			c5.91-7.42,11.56-17.75,15.22-28.26C347.9,291.64,363.4,333.93,371.85,377.35z"/>
	</g>
	<g>
		<g>
			<g>
				<g>
					<g>
						<path class="st5" d="M402.42,235.84c-9.96,3.3-19.44,10.01-25.91,22.58c-37.3,72.5,98.41,205.58,98.41,205.58
							s110.76,120.01,165.86,16.98"/>
						<path class="st6" d="M507.67,503.91c-21.76-15.21-37.11-31.4-39.19-33.64c-7.64-7.5-139.54-139.06-99.96-215.96
							c6.86-13.36,17.31-22.44,31.07-27.01c4.72-1.57,9.81,0.99,11.37,5.71c1.57,4.72-0.99,9.8-5.71,11.37
							c-9.25,3.07-16.03,9.01-20.74,18.16c-28.09,54.59,60.28,159.3,96.72,195.04c0.1,0.1,0.2,0.2,0.3,0.31
							c0.57,0.61,57.63,61.64,106.03,55.43c18.58-2.39,33.39-14.35,45.28-36.58c2.34-4.38,7.8-6.03,12.19-3.69
							c4.35,2.35,6.02,7.8,3.68,12.18c-14.63,27.35-34.44,42.81-58.89,45.93C560.7,534.9,530.63,519.96,507.67,503.91z"/>
					</g>
					<g>
						<path class="st7" d="M518.21,251.64c0,0-85.43-70.46-120-9.27c-34.56,61.17,74.62,169.39,74.62,169.39
							s114.01,127.63,176.37,61.72c62.35-65.9-5.16-142.5-5.16-142.5s-18.76-27.26-72.93-51.53
							C536.44,263.94,523.42,255.65,518.21,251.64z"/>
						<path class="st6" d="M525.37,469.92c-32.19-22.5-56.51-49.12-59.05-51.95c-6.83-6.81-113.03-114.35-75.94-180.02
							c8.58-15.18,20.67-24.63,35.95-28.1c31.8-7.22,68.64,14.13,87.78,27.51c6.03,4.21,9.69,7.21,9.84,7.34
							c0.26,0.19,0.86,0.64,1.56,1.13c6.09,4.26,19.59,12.12,49.28,25.42c16.13,7.23,30.79,15.43,43.6,24.38
							c21.27,14.87,30.93,27.33,32.76,29.83c5.37,6.39,69.39,85.75,4.6,154.22C634.59,502.01,594.81,518.46,525.37,469.92z
							 M503.79,252.1c-13.44-9.39-47.5-30.61-73.49-24.7c-10.26,2.32-18.2,8.67-24.26,19.4c-25.55,45.23,44.12,129.8,73.12,158.57
							c0.13,0.12,0.25,0.26,0.38,0.39c0.24,0.27,24.6,27.36,56.13,49.4c47.31,33.07,83.31,37.16,106.98,12.13
							c55.88-59.05-2.86-127.49-5.38-130.37c-0.23-0.26-0.46-0.55-0.65-0.84c-0.06-0.08-8.2-11.49-28.56-25.72
							c-11.88-8.31-25.56-15.94-40.64-22.71c-24.87-11.13-42.45-20.25-52.23-27.09c-0.95-0.67-1.76-1.26-2.45-1.79
							C512.46,258.56,509.17,255.87,503.79,252.1z"/>
					</g>
					<path class="st6" d="M455.11,327.94c-5.3-3.7-10.24-8.82-14.28-14.82c-12.96-19.22-13.41-41.02-1.06-50.71
						c8.35-6.55,20.57-5.72,31.88,2.19c5.3,3.71,10.24,8.83,14.28,14.81c12.97,19.25,13.42,41.06,1.06,50.72
						C478.63,336.67,466.4,335.84,455.11,327.94z M461.34,279.35c-4.86-3.4-8.95-3.96-10.47-2.77c-3.38,2.65-3.15,14.56,4.88,26.49
						c2.82,4.17,6.16,7.67,9.66,10.12c4.86,3.4,8.95,3.97,10.49,2.77c3.37-2.64,3.13-14.55-4.9-26.48
						C468.19,285.3,464.85,281.8,461.34,279.35z"/>
					<path class="st6" d="M519.2,317c-2.97-2.08-4.51-5.84-3.58-9.56l6.82-27.23c1.2-4.82,6.09-7.75,10.91-6.54
						c4.82,1.21,7.75,6.1,6.54,10.92l-6.81,27.22c-1.2,4.82-6.09,7.75-10.91,6.55C521.08,318.07,520.08,317.61,519.2,317z"/>
					<path class="st6" d="M509.46,376.67c-2.77-1.94-4.33-5.39-3.7-8.94l5.25-29.81c0.86-4.89,5.52-8.16,10.42-7.3
						c4.9,0.87,8.17,5.53,7.3,10.43l-5.24,29.81c-0.86,4.89-5.52,8.16-10.42,7.3C511.72,377.92,510.51,377.4,509.46,376.67z"/>
					<path class="st6" d="M499.78,421.52c-2.96-2.07-4.5-5.82-3.58-9.54l4.79-19.37c1.19-4.83,6.07-7.78,10.89-6.58
						c4.82,1.19,7.77,6.07,6.58,10.89l-4.79,19.38c-1.19,4.82-6.07,7.77-10.89,6.58C501.68,422.6,500.67,422.14,499.78,421.52z"/>
					<path class="st6" d="M557.63,362.89c-2.89-2.02-4.44-5.66-3.63-9.32l11.29-51.08c1.08-4.85,5.87-7.92,10.73-6.84
						c4.85,1.07,7.92,5.87,6.84,10.73l-11.29,51.08c-1.07,4.85-5.87,7.91-10.73,6.84C559.65,364.04,558.57,363.55,557.63,362.89z"/>
					<path class="st6" d="M540.31,445.39c-2.92-2.04-4.46-5.72-3.61-9.4l13.12-57.07c1.11-4.85,5.94-7.87,10.78-6.76
						c4.85,1.12,7.87,5.94,6.76,10.79l-13.12,57.07c-1.11,4.85-5.94,7.87-10.78,6.76C542.29,446.51,541.24,446.04,540.31,445.39z"/>
					<path class="st6" d="M607.95,376.28c-2.84-1.99-4.4-5.54-3.66-9.16l6.42-31.66c0.99-4.86,5.74-8.02,10.6-7.03
						c4.87,0.99,8.02,5.74,7.03,10.61l-6.42,31.66c-0.99,4.86-5.73,8.02-10.61,7.03C610.08,377.46,608.94,376.97,607.95,376.28z"/>
					<path class="st6" d="M598.54,429.12c-2.85-1.99-4.4-5.55-3.67-9.17l5.29-26.07c0.98-4.87,5.73-8.02,10.61-7.03
						c4.86,0.99,8.01,5.73,7.03,10.61l-5.29,26.07c-0.98,4.87-5.73,8.02-10.61,7.03C600.65,430.31,599.52,429.81,598.54,429.12z"/>
					<path class="st6" d="M588.39,474.21c-2.92-2.04-4.46-5.71-3.61-9.39l3.39-14.79c1.12-4.85,5.94-7.87,10.78-6.76
						c4.84,1.12,7.87,5.94,6.76,10.78l-3.39,14.79c-1.11,4.84-5.93,7.87-10.78,6.76C590.38,475.33,589.31,474.85,588.39,474.21z"/>
					<path class="st6" d="M636.75,431.94c-2.97-2.07-4.5-5.83-3.58-9.55l4.6-18.53c1.2-4.82,6.08-7.76,10.9-6.57
						c4.82,1.19,7.76,6.08,6.57,10.91l-4.6,18.52c-1.2,4.82-6.08,7.77-10.9,6.57C638.64,433.02,637.63,432.55,636.75,431.94z"/>
					<path class="st6" d="M468.2,376.85c-2.96-2.07-4.5-5.82-3.58-9.55l4.79-19.35c1.19-4.83,6.08-7.77,10.89-6.58
						c4.83,1.19,7.76,6.07,6.57,10.9l-4.79,19.36c-1.2,4.82-6.07,7.77-10.9,6.57C470.08,377.93,469.08,377.47,468.2,376.85z"/>
					<path class="st6" d="M491.55,282.56c-3.22-2.25-4.69-6.44-3.34-10.33l3.43-9.88c1.63-4.69,6.75-7.17,11.45-5.55
						c4.7,1.63,7.18,6.76,5.55,11.45l-3.43,9.89c-1.64,4.69-6.76,7.18-11.45,5.55C492.95,283.41,492.21,283.02,491.55,282.56z"/>
					<path class="st6" d="M557.06,245.13c-2.17-1.52-3.64-3.96-3.83-6.8c-0.32-4.96,3.44-9.24,8.4-9.56
						c14.21-0.92,15.43-7.2,17.04-22.55c1.51-14.41,3.79-36.18,33.37-36.9c4.96-0.12,9.09,3.81,9.21,8.78
						c0.12,4.97-3.81,9.09-8.78,9.21c-13.14,0.32-14.28,5.25-15.91,20.79c-1.53,14.61-3.85,36.69-33.78,38.62
						C560.67,246.86,558.67,246.26,557.06,245.13z"/>
					<path class="st6" d="M606.5,257.83c-2-1.4-3.43-3.6-3.77-6.21c-0.64-4.92,2.83-9.44,7.76-10.08
						c15.69-2.04,15.83-6.85,16.17-19.73c0.36-13.56,0.92-34.05,32.72-40.05c4.89-0.92,9.59,2.29,10.51,7.17
						c0.92,4.89-2.29,9.59-7.17,10.51c-17.55,3.31-17.73,9.85-18.07,22.86c-0.36,13.17-0.89,33.06-31.84,37.08
						C610.5,259.68,608.28,259.08,606.5,257.83z"/>
				</g>
			</g>
		</g>
	</g>
	<g>
		<g>
			<g>
				<g>
					<path class="st8" d="M437.12,356.61l-13.87,40.27c-0.48,1.4-1.8,2.29-3.21,2.29c-0.36,0-0.75-0.07-1.1-0.19
						c-1.77-0.61-2.72-2.54-2.1-4.32l14.16-41.1c-22.69-10.89-48.84-17.7-76.52-19.2l-16.98,62.32c-0.42,1.51-1.78,2.5-3.28,2.5
						c-0.29,0-0.6-0.04-0.9-0.13c-1.8-0.49-2.87-2.36-2.38-4.17l16.54-60.75c-1.58-0.04-3.13-0.16-4.72-0.16
						c-10.01,0-19.85,0.74-29.45,2.06l-6.79,1.14c-12.93,2.23-25.33,5.61-37.04,10.03l-16.03,49.62c-0.46,1.45-1.8,2.36-3.24,2.36
						c-0.34,0-0.69-0.06-1.03-0.17c-1.78-0.59-2.77-2.49-2.19-4.27l14.32-44.32c-39.41,16.98-69.51,45.86-80.87,80.88H505.1
						C495.02,400.22,470.13,374,437.12,356.61z"/>
					<path class="st5" d="M483.53,435.37H198.53v14.71c0.73-0.08,1.48-0.02,2.13,0.38l33.38,19.98l33.39-19.98
						c1.08-0.65,2.41-0.65,3.5,0l33.34,19.98l33.4-19.98c1.07-0.64,2.41-0.64,3.48,0l33.38,19.98l33.39-19.98
						c1.07-0.64,2.41-0.64,3.48,0l33.38,19.98l33.37-19.98c1.08-0.65,2.41-0.65,3.49,0l1.87,1.11V435.37z"/>
					<path class="st9" d="M212.07,545.3h261.98c11.98,0,21.69-9.71,21.69-21.69v-14.95H190.39v14.97
						C190.39,535.59,200.1,545.3,212.07,545.3z"/>
					<path class="st10" d="M446.56,477.23c-0.14,0.09-0.3,0.09-0.45,0.16c-0.22,0.09-0.42,0.18-0.65,0.23
						c-0.22,0.05-0.42,0.03-0.65,0.03c-0.22,0-0.42,0.02-0.66-0.03c-0.22-0.04-0.42-0.13-0.63-0.22c-0.15-0.07-0.32-0.08-0.46-0.17
						l-33.38-19.98l-33.38,19.98c-0.02,0.01-0.04,0.01-0.06,0.01c-0.51,0.3-1.1,0.47-1.69,0.47c-0.59,0-1.18-0.17-1.69-0.47
						c-0.02,0-0.04,0-0.06-0.01l-33.38-19.98l-33.4,19.98c-0.02,0.01-0.04,0.01-0.07,0.02c-0.09,0.05-0.17,0.07-0.27,0.1
						c-0.4,0.18-0.82,0.29-1.22,0.31c-0.07,0-0.13,0.05-0.19,0.05c-0.09,0-0.17-0.07-0.26-0.07c-0.42-0.03-0.83-0.15-1.21-0.33
						c-0.09-0.05-0.2-0.03-0.29-0.08l-33.34-19.98l-33.4,19.98c-0.02,0.01-0.04,0.01-0.06,0.02c-0.09,0.05-0.17,0.06-0.26,0.09
						c-0.4,0.19-0.82,0.3-1.24,0.32c-0.07,0-0.13,0.05-0.19,0.05c-0.09,0-0.18-0.07-0.26-0.07c-0.42-0.03-0.84-0.15-1.22-0.34
						c-0.09-0.04-0.18-0.02-0.27-0.07l-33.38-19.98l-0.39,0.23v43.03h284.99v-41.1l-3.61-2.15L446.56,477.23z"/>
				</g>
				<g>
					<path class="st6" d="M509.67,443.51H175.89c-2.87,0-5.57-1.33-7.3-3.62c-1.74-2.28-2.3-5.24-1.54-7.99
						c17.76-64.24,91.66-110.86,175.72-110.86c84.07,0,157.97,46.62,175.73,110.86c0.77,2.76,0.19,5.72-1.54,7.99
						C515.23,442.18,512.53,443.51,509.67,443.51z M188.74,423.16h308.08c-20.95-50.36-83.38-85.79-154.04-85.79
						C272.12,337.36,209.69,372.8,188.74,423.16z"/>
					<path class="st6" d="M473.72,557.51H208.35c-18.91,0-34.24-15.33-34.24-34.24v-17.65c0-5.07,4.11-9.18,9.18-9.18h315.5
						c5.06,0,9.17,4.1,9.17,9.17v17.66C507.96,542.18,492.63,557.51,473.72,557.51z M194.46,512.72v8.53c0,8.78,7.12,15.9,15.9,15.9
						h265.39c8.76,0,15.92-7.16,15.92-15.92v-8.51H194.46z"/>
					<path class="st6" d="M250.24,403.88c-0.94,0-1.89-0.15-2.83-0.45c-4.82-1.56-7.46-6.73-5.91-11.54l16.57-51.32
						c1.56-4.82,6.75-7.45,11.54-5.91c4.82,1.56,7.46,6.73,5.91,11.55l-16.57,51.32C257.7,401.4,254.11,403.88,250.24,403.88z"/>
					<path class="st6" d="M334.23,403.88c-0.8,0-1.61-0.11-2.41-0.33c-4.89-1.33-7.77-6.36-6.44-11.25l17.76-65.2
						c1.33-4.89,6.36-7.78,11.26-6.44c4.89,1.33,7.77,6.36,6.44,11.25l-17.76,65.19C341.96,401.19,338.26,403.88,334.23,403.88z"/>
					<path class="st6" d="M420.05,403.88c-0.99,0-1.99-0.17-2.98-0.5c-4.78-1.65-7.34-6.87-5.68-11.66l15.28-44.34
						c1.65-4.79,6.86-7.33,11.65-5.68c4.79,1.65,7.34,6.87,5.68,11.66l-15.28,44.33C427.41,401.48,423.86,403.88,420.05,403.88z"/>
					<path class="st6" d="M488.28,504.61c-5.06,0-9.17-4.11-8.83-9.18v-59.77c-0.34-5.06,3.77-9.17,8.83-9.17
						c5.07,0,9.17,4.11,11.53,9.17v59.77C497.45,500.5,493.35,504.61,488.28,504.61z"/>
					<path class="st6" d="M197.02,504.61c-5.07,0-9.16-4.11-10.7-9.18v-59.77c1.54-5.06,5.63-9.17,10.7-9.17
						c5.06,0,9.17,4.11,9.66,9.17v59.77C206.19,500.5,202.09,504.61,197.02,504.61z"/>
					<path class="st6" d="M235.86,485.24c-1.61,0-3.23-0.42-4.71-1.31l-30.35-18.19l-30.36,18.2c-4.33,2.59-9.97,1.19-12.58-3.15
						c-2.6-4.34-1.19-9.97,3.15-12.58l35.07-21.03c2.9-1.74,6.53-1.74,9.43,0l35.06,21.03c4.34,2.61,5.75,8.23,3.15,12.58
						C242.01,483.65,238.97,485.24,235.86,485.24z"/>
					<path class="st6" d="M235.88,485.24c-3.12,0-6.16-1.59-7.87-4.45c-2.61-4.34-1.19-9.98,3.15-12.58l35.08-21.03
						c2.9-1.75,6.53-1.74,9.43,0l35.03,21.03c4.34,2.61,5.75,8.23,3.14,12.58c-2.61,4.34-8.24,5.75-12.58,3.14l-30.32-18.19
						l-30.36,18.2C239.1,484.82,237.48,485.24,235.88,485.24z"/>
					<path class="st6" d="M305.98,485.24c-3.12,0-6.16-1.59-7.87-4.45c-2.61-4.34-1.19-9.98,3.15-12.58l35.08-21.03
						c2.9-1.74,6.53-1.74,9.43,0l35.06,21.03c4.34,2.61,5.76,8.23,3.15,12.58c-2.61,4.34-8.23,5.75-12.58,3.15l-30.34-18.2
						l-30.36,18.2C309.21,484.82,307.59,485.24,305.98,485.24z"/>
					<path class="st6" d="M376.12,485.24c-3.11,0-6.15-1.59-7.87-4.45c-2.6-4.34-1.19-9.97,3.15-12.58l35.06-21.03
						c2.9-1.74,6.53-1.74,9.43,0l35.05,21.03c4.34,2.61,5.75,8.23,3.15,12.58c-2.62,4.34-8.24,5.75-12.59,3.14l-30.34-18.19
						l-30.35,18.19C379.36,484.82,377.73,485.24,376.12,485.24z"/>
					<path class="st6" d="M516.34,485.24c-1.61,0-3.23-0.42-4.71-1.3l-30.36-18.2l-30.32,18.19c-4.34,2.61-9.97,1.2-12.58-3.14
						c-2.61-4.34-1.2-9.97,3.14-12.58l35.04-21.03c2.91-1.74,6.53-1.75,9.43,0l35.07,21.03c4.34,2.6,5.76,8.23,3.15,12.58
						C522.49,483.65,519.46,485.24,516.34,485.24z"/>
				</g>
			</g>
		</g>
	</g>
</g>
</svg>
